# xmcd
#
# Track frame offsets:
# 150
# 13342
# 25692
# 39082
# 47250
# 61682
# 73297
# 88507
# 101757
# 112162
# 122550
# 140295
# 152147
#
# Disc length: 2179 seconds
#
#
# Revision: 0
# Processed by: cddbd v1.5.1PL0 Copyright (c) Steve Scherf et al.
# Submitted via: FreeRIP 2.93 
#
DISCID=a408810d
DTITLE=Helmut and die Hillbillies - In love with a fallen star
DYEAR=1993
DGENRE=Bluegrass
TTITLE0=Bluegrass music wollen wir hör'n
TTITLE1=Cry, cry, cry
TTITLE2=A fallen star
TTITLE3=Hillbilly twist
TTITLE4=Walking where the ice is thin
TTITLE5=Tiger by the tail
TTITLE6=Rivers of tears
TTITLE7=Valley of peace
TTITLE8=Smoke along the track
TTITLE9=Happ Günter
TTITLE10=Maria
TTITLE11=Your way of treatin' me
TTITLE12=Der Winter ist vergangen
EXTD=
EXTT0=
EXTT1=
EXTT2=
EXTT3=
EXTT4=
EXTT5=
EXTT6=
EXTT7=
EXTT8=
EXTT9=
EXTT10=
EXTT11=
EXTT12=
PLAYORDER=
